<?xml version="1.0" encoding="UTF-8"?>
<svg xmlns="http://www.w3.org/2000/svg" xmlns:xlink="http://www.w3.org/1999/xlink" width="500px" height="363px" viewBox="0 0 393 286" version="1.1">
<defs>
<filter id="alpha" filterUnits="objectBoundingBox" x="0%" y="0%" width="100%" height="100%">
  <feColorMatrix type="matrix" in="SourceGraphic" values="0 0 0 0 1 0 0 0 0 1 0 0 0 0 1 0 0 0 1 0"/>
</filter>
<mask id="mask0">
  <g filter="url(#alpha)">
<rect x="0" y="0" width="393" height="286" style="fill:rgb(0%,0%,0%);fill-opacity:0.2;stroke:none;"/>
  </g>
</mask>
<clipPath id="clip1">
  <rect x="0" y="0" width="393" height="286"/>
</clipPath>
<g id="surface5" clip-path="url(#clip1)">
<path style=" stroke:none;fill-rule:nonzero;fill:rgb(0%,0%,0%);fill-opacity:1;" d="M 271.652344 230.71875 C 271.644531 231.59375 271.636719 232.820312 271.59375 234.332031 C 271.589844 234.542969 271.582031 234.757812 271.574219 234.976562 C 271.527344 237.101562 271.449219 239.726562 271.347656 242.695312 C 271.339844 242.875 271.335938 243.046875 271.324219 243.226562 C 271.1875 246.847656 270.964844 251.0625 270.585938 257.738281 C 269.882812 270.070312 268.65625 259.433594 267.421875 263.757812 C 263.996094 261.648438 260.238281 259.4375 256.226562 257.167969 C 255.5 256.757812 254.769531 256.347656 254.03125 255.933594 C 246.003906 251.449219 237.035156 246.75 227.671875 242.09375 C 227.300781 241.910156 226.925781 241.722656 226.558594 241.542969 C 205.109375 230.929688 181.699219 220.601562 162.734375 213.714844 C 159.074219 212.382812 155.578125 211.183594 152.292969 210.128906 C 145.371094 207.914062 139.390625 206.363281 134.785156 205.695312 C 129.992188 204.992188 126.679688 205.242188 125.339844 206.6875 C 125.292969 205.667969 125.238281 204.691406 125.1875 203.757812 C 125.167969 203.449219 125.148438 203.144531 125.125 202.84375 C 125.15625 202.761719 125.199219 202.683594 125.238281 202.601562 C 125.242188 202.589844 125.246094 202.578125 125.25 202.570312 C 125.261719 202.542969 125.273438 202.515625 125.285156 202.492188 C 125.300781 202.460938 125.316406 202.433594 125.335938 202.402344 C 125.351562 202.367188 125.371094 202.335938 125.398438 202.304688 C 125.441406 202.234375 125.492188 202.160156 125.546875 202.089844 C 125.585938 202.035156 125.628906 201.984375 125.675781 201.9375 C 125.691406 201.914062 125.710938 201.890625 125.730469 201.875 C 125.75 201.851562 125.769531 201.828125 125.796875 201.804688 C 125.808594 201.789062 125.820312 201.773438 125.835938 201.761719 C 125.875 201.71875 125.917969 201.675781 125.964844 201.636719 C 126.144531 201.472656 126.335938 201.324219 126.535156 201.1875 C 126.605469 201.144531 126.679688 201.097656 126.75 201.046875 C 127.253906 200.746094 127.78125 200.492188 128.332031 200.289062 C 128.523438 200.21875 128.710938 200.152344 128.917969 200.082031 C 128.992188 200.0625 129.0625 200.039062 129.136719 200.011719 C 129.246094 199.976562 129.355469 199.945312 129.472656 199.917969 C 130.039062 199.75 130.65625 199.601562 131.320312 199.46875 C 131.519531 199.429688 131.730469 199.386719 131.9375 199.351562 C 132.109375 199.324219 132.28125 199.292969 132.457031 199.261719 C 133.941406 199.027344 135.625 198.851562 137.480469 198.738281 C 137.65625 198.726562 137.832031 198.71875 138.003906 198.707031 C 138.210938 198.699219 138.414062 198.6875 138.625 198.679688 C 138.800781 198.667969 138.980469 198.664062 139.160156 198.660156 C 139.332031 198.648438 139.511719 198.644531 139.699219 198.636719 C 140.203125 198.625 140.722656 198.609375 141.25 198.597656 C 142.757812 198.574219 144.347656 198.582031 146.015625 198.617188 C 146.789062 198.632812 147.578125 198.660156 148.386719 198.695312 C 148.4375 198.695312 148.492188 198.699219 148.542969 198.699219 C 149.246094 198.71875 149.960938 198.753906 150.683594 198.789062 C 151.195312 198.8125 151.707031 198.839844 152.222656 198.867188 C 152.707031 198.898438 153.195312 198.929688 153.691406 198.964844 C 154.074219 198.984375 154.460938 199.011719 154.847656 199.039062 C 155.179688 199.0625 155.507812 199.089844 155.835938 199.109375 C 156.230469 199.136719 156.625 199.167969 157.027344 199.199219 C 157.574219 199.242188 158.125 199.289062 158.683594 199.332031 C 159.238281 199.382812 159.804688 199.433594 160.367188 199.484375 C 160.929688 199.535156 161.5 199.589844 162.070312 199.644531 C 162.128906 199.648438 162.183594 199.652344 162.238281 199.660156 C 162.757812 199.714844 163.277344 199.761719 163.800781 199.820312 C 166.710938 200.113281 169.699219 200.457031 172.777344 200.851562 C 174.613281 201.089844 176.476562 201.339844 178.359375 201.609375 C 181.21875 202.011719 184.125 202.453125 187.054688 202.921875 C 189.984375 203.398438 192.933594 203.898438 195.898438 204.429688 C 196.644531 204.5625 197.394531 204.699219 198.148438 204.839844 C 199.066406 205.007812 199.988281 205.183594 200.90625 205.359375 C 201.484375 205.46875 202.0625 205.578125 202.644531 205.695312 C 203.332031 205.828125 204.027344 205.964844 204.714844 206.097656 C 209.253906 207 213.769531 207.957031 218.171875 208.964844 C 218.898438 209.128906 219.621094 209.296875 220.339844 209.464844 C 221.777344 209.796875 223.203125 210.136719 224.617188 210.484375 C 225.003906 210.578125 225.390625 210.671875 225.773438 210.769531 C 226.738281 211.007812 227.691406 211.25 228.636719 211.488281 L 228.636719 211.492188 C 228.691406 211.503906 228.746094 211.519531 228.800781 211.535156 C 229.488281 211.707031 230.171875 211.882812 230.851562 212.0625 C 232.457031 212.484375 234.03125 212.90625 235.582031 213.332031 C 236.609375 213.625 237.628906 213.910156 238.632812 214.199219 C 240.136719 214.636719 241.609375 215.078125 243.042969 215.519531 C 243.394531 215.628906 243.75 215.738281 244.101562 215.84375 C 245.148438 216.171875 246.179688 216.5 247.1875 216.828125 C 247.984375 217.089844 248.765625 217.351562 249.535156 217.617188 C 250.300781 217.882812 251.058594 218.148438 251.796875 218.414062 C 252.273438 218.582031 252.746094 218.757812 253.207031 218.929688 C 253.886719 219.179688 254.546875 219.429688 255.195312 219.683594 C 255.394531 219.757812 255.589844 219.839844 255.785156 219.914062 C 256.148438 220.054688 256.503906 220.199219 256.855469 220.34375 C 257.089844 220.433594 257.320312 220.527344 257.546875 220.628906 C 257.773438 220.71875 258.003906 220.8125 258.222656 220.910156 C 258.449219 221 258.667969 221.09375 258.886719 221.195312 C 259.070312 221.269531 259.25 221.347656 259.425781 221.429688 C 259.78125 221.582031 260.136719 221.738281 260.480469 221.898438 C 260.648438 221.976562 260.820312 222.054688 260.988281 222.132812 L 261.378906 222.3125 C 261.433594 222.34375 261.488281 222.367188 261.542969 222.394531 C 261.96875 222.59375 262.378906 222.792969 262.777344 222.992188 C 263.152344 223.183594 263.515625 223.375 263.867188 223.558594 C 264.28125 223.777344 264.675781 223.992188 265.054688 224.214844 C 265.128906 224.253906 265.203125 224.296875 265.277344 224.339844 C 265.535156 224.484375 265.777344 224.632812 266.023438 224.777344 C 266.503906 225.074219 266.957031 225.363281 267.382812 225.652344 C 267.800781 225.941406 268.191406 226.226562 268.554688 226.511719 C 268.554688 226.519531 268.554688 226.519531 268.558594 226.519531 C 268.734375 226.660156 268.902344 226.796875 269.0625 226.933594 C 269.324219 227.160156 269.5625 227.375 269.78125 227.59375 C 269.855469 227.660156 269.925781 227.734375 269.992188 227.808594 C 270.023438 227.832031 270.046875 227.859375 270.074219 227.886719 C 270.175781 228.003906 270.28125 228.117188 270.382812 228.234375 C 270.503906 228.375 270.613281 228.511719 270.714844 228.652344 C 270.765625 228.722656 270.820312 228.792969 270.867188 228.863281 C 270.925781 228.949219 270.988281 229.039062 271.035156 229.125 C 271.082031 229.191406 271.121094 229.269531 271.160156 229.339844 C 271.265625 229.519531 271.355469 229.707031 271.429688 229.902344 C 271.484375 230.035156 271.53125 230.171875 271.566406 230.3125 C 271.601562 230.445312 271.632812 230.582031 271.652344 230.71875 Z M 271.652344 230.71875 "/>
</g>
</defs>
<g id="surface1">
<path style=" stroke:none;fill-rule:nonzero;fill:rgb(94.901961%,94.901961%,94.901961%);fill-opacity:1;" d="M 242.203125 37.089844 C 242.203125 44.464844 236.234375 50.441406 228.871094 50.441406 C 221.503906 50.441406 215.535156 44.464844 215.535156 37.089844 C 215.535156 29.71875 221.503906 23.742188 228.871094 23.742188 C 236.234375 23.742188 242.203125 29.71875 242.203125 37.089844 Z M 242.203125 37.089844 "/>
<path style=" stroke:none;fill-rule:nonzero;fill:rgb(94.901961%,94.901961%,94.901961%);fill-opacity:1;" d="M 332.300781 248.574219 C 352.121094 233.460938 361.585938 208.0625 355.660156 183.835938 C 355.511719 183.234375 355.355469 182.632812 355.191406 182.03125 C 351.265625 167.652344 341.542969 153.984375 327.378906 149.386719 C 315.484375 145.527344 302.5 148.496094 290.089844 146.960938 C 265.730469 143.949219 246.847656 124.214844 233.558594 103.550781 C 220.269531 82.890625 210.058594 59.761719 192.398438 42.691406 C 163.292969 14.550781 115.816406 8.492188 79.730469 26.808594 C 43.644531 45.125 20.65625 85.757812 21.636719 126.257812 C 22.617188 166.753906 46.628906 205.472656 81.496094 226.015625 C 94.308594 233.5625 109.125 238.910156 123.867188 237.039062 C 136.660156 235.414062 148.285156 228.53125 161.019531 226.488281 C 181.039062 223.273438 200.933594 232.339844 218.25 242.898438 C 235.5625 253.460938 252.289062 265.980469 271.96875 270.875 C 291.074219 275.628906 314.746094 261.964844 332.300781 248.574219 Z M 332.300781 248.574219 "/>
<path style=" stroke:none;fill-rule:nonzero;fill:rgb(24.705882%,23.921569%,33.72549%);fill-opacity:1;" d="M 303.828125 27.660156 C 303.390625 27.371094 302.953125 27.09375 302.519531 26.816406 C 289.960938 18.773438 276.5 12.238281 262.414062 7.351562 L 259.148438 52.460938 L 238.445312 52.460938 L 238.445312 0.765625 C 237.140625 0.496094 235.828125 0.238281 234.515625 0 L 234.515625 52.460938 L 209.910156 52.460938 C 181.707031 52.460938 158.839844 29.566406 158.839844 1.324219 C 157.523438 1.609375 156.214844 1.914062 154.90625 2.238281 L 154.90625 52.460938 L 134.867188 52.460938 L 131.753906 9.445312 C 117.28125 15.003906 103.539062 22.3125 90.835938 31.210938 C 90.617188 31.359375 90.398438 31.515625 90.183594 31.664062 C 89.078125 32.441406 87.992188 33.230469 86.90625 34.03125 L 86.90625 206.125 L 145.96875 206.125 L 144.921875 191.648438 L 139.179688 112.175781 L 254.828125 112.175781 L 249.085938 191.648438 L 248.042969 206.125 L 306.449219 206.125 L 306.449219 29.398438 C 305.578125 28.808594 304.707031 28.230469 303.828125 27.660156 Z M 154.90625 99.050781 L 138.230469 99.050781 L 135.152344 56.398438 L 154.90625 56.398438 Z M 234.515625 99.050781 L 206.511719 99.050781 L 206.511719 98.203125 C 206.511719 97.382812 206.183594 96.597656 205.605469 96.019531 C 205.023438 95.4375 204.238281 95.113281 203.417969 95.113281 L 191.246094 95.113281 C 189.539062 95.113281 188.15625 96.5 188.160156 98.203125 L 188.160156 99.050781 L 158.839844 99.050781 L 158.839844 56.398438 L 234.515625 56.398438 Z M 238.445312 99.050781 L 238.445312 56.398438 L 258.863281 56.398438 L 255.78125 99.050781 Z M 238.445312 99.050781 "/>
<path style=" stroke:none;fill-rule:nonzero;fill:rgb(24.705882%,23.921569%,33.72549%);fill-opacity:1;" d="M 0 217.144531 C 4.339844 222.292969 9.03125 227.128906 14.042969 231.621094 L 378.867188 232.121094 C 383.878906 227.628906 388.570312 222.792969 392.910156 217.644531 Z M 0 217.144531 "/>
<path style=" stroke:none;fill-rule:nonzero;fill:rgb(24.705882%,23.921569%,33.72549%);fill-opacity:1;" d="M 247.398438 170.796875 L 247.398438 213.648438 C 247.402344 214.785156 248.320312 215.707031 249.457031 215.707031 L 312.878906 215.707031 C 314.015625 215.707031 314.933594 214.785156 314.9375 213.648438 L 314.9375 170.796875 C 314.933594 169.660156 314.011719 168.738281 312.878906 168.738281 L 249.457031 168.738281 C 248.324219 168.738281 247.402344 169.660156 247.398438 170.796875 Z M 247.398438 170.796875 "/>
<path style=" stroke:none;fill-rule:nonzero;fill:rgb(69.411765%,69.411765%,69.411765%);fill-opacity:1;" d="M 248.886719 171.328125 L 248.886719 213.117188 C 248.890625 213.726562 249.378906 214.21875 249.988281 214.21875 L 312.351562 214.21875 C 312.957031 214.21875 313.449219 213.726562 313.449219 213.117188 L 313.449219 171.328125 C 313.449219 170.71875 312.957031 170.226562 312.351562 170.226562 L 249.988281 170.226562 C 249.378906 170.226562 248.886719 170.71875 248.886719 171.328125 Z M 248.886719 171.328125 "/>
<path style=" stroke:none;fill-rule:nonzero;fill:rgb(18.431373%,18.039216%,25.490196%);fill-opacity:1;" d="M 246.074219 222.003906 C 246.308594 222.300781 246.667969 222.472656 247.042969 222.46875 L 314.953125 222.46875 C 315.328125 222.46875 315.6875 222.300781 315.921875 222.007812 C 316.160156 221.714844 316.253906 221.332031 316.175781 220.960938 L 315.121094 215.949219 C 315.03125 215.53125 314.738281 215.191406 314.34375 215.039062 C 314.203125 214.984375 314.050781 214.957031 313.898438 214.957031 L 248.09375 214.957031 C 247.941406 214.957031 247.792969 214.984375 247.652344 215.039062 C 247.253906 215.191406 246.960938 215.53125 246.871094 215.949219 L 245.820312 220.960938 C 245.742188 221.332031 245.835938 221.714844 246.074219 222.003906 Z M 246.074219 222.003906 "/>
<path style=" stroke:none;fill-rule:nonzero;fill:rgb(24.705882%,23.921569%,33.72549%);fill-opacity:1;" d="M 313.171875 217.113281 L 311.570312 217.113281 C 311.433594 217.113281 311.324219 217.007812 311.324219 216.871094 L 311.324219 216.101562 C 311.324219 215.96875 311.433594 215.859375 311.570312 215.859375 L 313.171875 215.859375 C 313.308594 215.859375 313.417969 215.96875 313.417969 216.101562 L 313.417969 216.871094 C 313.417969 217.007812 313.308594 217.113281 313.171875 217.113281 Z M 313.171875 217.113281 "/>
<path style=" stroke:none;fill-rule:nonzero;fill:rgb(24.705882%,23.921569%,33.72549%);fill-opacity:1;" d="M 308.992188 217.113281 L 307.386719 217.113281 C 307.25 217.113281 307.144531 217.007812 307.144531 216.871094 L 307.144531 216.101562 C 307.144531 215.96875 307.25 215.859375 307.386719 215.859375 L 308.992188 215.859375 C 309.125 215.859375 309.234375 215.96875 309.234375 216.101562 L 309.234375 216.871094 C 309.234375 217.007812 309.125 217.113281 308.992188 217.113281 Z M 308.992188 217.113281 "/>
<path style=" stroke:none;fill-rule:nonzero;fill:rgb(24.705882%,23.921569%,33.72549%);fill-opacity:1;" d="M 304.808594 217.113281 L 303.203125 217.113281 C 303.070312 217.113281 302.960938 217.007812 302.960938 216.871094 L 302.960938 216.101562 C 302.960938 215.96875 303.070312 215.859375 303.203125 215.859375 L 304.808594 215.859375 C 304.941406 215.859375 305.050781 215.96875 305.050781 216.101562 L 305.050781 216.871094 C 305.050781 217.007812 304.941406 217.113281 304.808594 217.113281 Z M 304.808594 217.113281 "/>
<path style=" stroke:none;fill-rule:nonzero;fill:rgb(24.705882%,23.921569%,33.72549%);fill-opacity:1;" d="M 300.625 217.113281 L 299.019531 217.113281 C 298.886719 217.113281 298.777344 217.007812 298.777344 216.871094 L 298.777344 216.101562 C 298.777344 215.96875 298.886719 215.859375 299.019531 215.859375 L 300.625 215.859375 C 300.757812 215.859375 300.867188 215.96875 300.867188 216.101562 L 300.867188 216.871094 C 300.867188 217.007812 300.757812 217.113281 300.625 217.113281 Z M 300.625 217.113281 "/>
<path style=" stroke:none;fill-rule:nonzero;fill:rgb(24.705882%,23.921569%,33.72549%);fill-opacity:1;" d="M 296.441406 217.113281 L 294.835938 217.113281 C 294.703125 217.113281 294.59375 217.007812 294.59375 216.871094 L 294.59375 216.101562 C 294.59375 215.96875 294.703125 215.859375 294.835938 215.859375 L 296.441406 215.859375 C 296.574219 215.859375 296.683594 215.96875 296.683594 216.101562 L 296.683594 216.871094 C 296.683594 217.007812 296.574219 217.113281 296.441406 217.113281 Z M 296.441406 217.113281 "/>
<path style=" stroke:none;fill-rule:nonzero;fill:rgb(24.705882%,23.921569%,33.72549%);fill-opacity:1;" d="M 292.257812 217.113281 L 290.652344 217.113281 C 290.519531 217.113281 290.410156 217.007812 290.410156 216.871094 L 290.410156 216.101562 C 290.410156 215.96875 290.519531 215.859375 290.652344 215.859375 L 292.257812 215.859375 C 292.390625 215.859375 292.5 215.96875 292.5 216.101562 L 292.5 216.871094 C 292.5 217.007812 292.390625 217.113281 292.257812 217.113281 Z M 292.257812 217.113281 "/>
<path style=" stroke:none;fill-rule:nonzero;fill:rgb(24.705882%,23.921569%,33.72549%);fill-opacity:1;" d="M 288.074219 217.113281 L 286.46875 217.113281 C 286.335938 217.113281 286.226562 217.007812 286.226562 216.871094 L 286.226562 216.101562 C 286.226562 215.96875 286.335938 215.859375 286.46875 215.859375 L 288.074219 215.859375 C 288.210938 215.859375 288.320312 215.96875 288.320312 216.101562 L 288.320312 216.871094 C 288.320312 217.007812 288.210938 217.113281 288.074219 217.113281 Z M 288.074219 217.113281 "/>
<path style=" stroke:none;fill-rule:nonzero;fill:rgb(24.705882%,23.921569%,33.72549%);fill-opacity:1;" d="M 283.890625 217.113281 L 282.289062 217.113281 C 282.152344 217.113281 282.042969 217.007812 282.042969 216.871094 L 282.042969 216.101562 C 282.042969 215.96875 282.152344 215.859375 282.289062 215.859375 L 283.890625 215.859375 C 284.027344 215.859375 284.136719 215.96875 284.136719 216.101562 L 284.136719 216.871094 C 284.136719 217.007812 284.027344 217.113281 283.890625 217.113281 Z M 283.890625 217.113281 "/>
<path style=" stroke:none;fill-rule:nonzero;fill:rgb(24.705882%,23.921569%,33.72549%);fill-opacity:1;" d="M 279.707031 217.113281 L 278.105469 217.113281 C 277.96875 217.113281 277.859375 217.007812 277.859375 216.871094 L 277.859375 216.101562 C 277.859375 215.96875 277.96875 215.859375 278.105469 215.859375 L 279.707031 215.859375 C 279.84375 215.859375 279.953125 215.96875 279.953125 216.101562 L 279.953125 216.871094 C 279.953125 217.007812 279.84375 217.113281 279.707031 217.113281 Z M 279.707031 217.113281 "/>
<path style=" stroke:none;fill-rule:nonzero;fill:rgb(24.705882%,23.921569%,33.72549%);fill-opacity:1;" d="M 275.523438 217.113281 L 273.921875 217.113281 C 273.785156 217.113281 273.675781 217.007812 273.675781 216.871094 L 273.675781 216.101562 C 273.675781 215.96875 273.785156 215.859375 273.921875 215.859375 L 275.523438 215.859375 C 275.660156 215.859375 275.769531 215.96875 275.769531 216.101562 L 275.769531 216.871094 C 275.769531 217.007812 275.660156 217.113281 275.523438 217.113281 Z M 275.523438 217.113281 "/>
<path style=" stroke:none;fill-rule:nonzero;fill:rgb(24.705882%,23.921569%,33.72549%);fill-opacity:1;" d="M 271.34375 217.113281 L 269.738281 217.113281 C 269.601562 217.113281 269.492188 217.007812 269.492188 216.871094 L 269.492188 216.101562 C 269.492188 215.96875 269.601562 215.859375 269.738281 215.859375 L 271.34375 215.859375 C 271.476562 215.859375 271.585938 215.96875 271.585938 216.101562 L 271.585938 216.871094 C 271.585938 217.007812 271.476562 217.113281 271.34375 217.113281 Z M 271.34375 217.113281 "/>
<path style=" stroke:none;fill-rule:nonzero;fill:rgb(24.705882%,23.921569%,33.72549%);fill-opacity:1;" d="M 267.160156 217.113281 L 265.554688 217.113281 C 265.421875 217.113281 265.3125 217.007812 265.3125 216.871094 L 265.3125 216.101562 C 265.3125 215.96875 265.421875 215.859375 265.554688 215.859375 L 267.160156 215.859375 C 267.292969 215.859375 267.402344 215.96875 267.402344 216.101562 L 267.402344 216.871094 C 267.402344 217.007812 267.292969 217.113281 267.160156 217.113281 Z M 267.160156 217.113281 "/>
<path style=" stroke:none;fill-rule:nonzero;fill:rgb(24.705882%,23.921569%,33.72549%);fill-opacity:1;" d="M 262.976562 217.113281 L 261.371094 217.113281 C 261.238281 217.113281 261.128906 217.007812 261.128906 216.871094 L 261.128906 216.101562 C 261.128906 215.96875 261.238281 215.859375 261.371094 215.859375 L 262.976562 215.859375 C 263.109375 215.859375 263.21875 215.96875 263.21875 216.101562 L 263.21875 216.871094 C 263.21875 217.007812 263.109375 217.113281 262.976562 217.113281 Z M 262.976562 217.113281 "/>
<path style=" stroke:none;fill-rule:nonzero;fill:rgb(24.705882%,23.921569%,33.72549%);fill-opacity:1;" d="M 258.792969 217.113281 L 257.1875 217.113281 C 257.054688 217.113281 256.945312 217.007812 256.945312 216.871094 L 256.945312 216.101562 C 256.945312 215.96875 257.054688 215.859375 257.1875 215.859375 L 258.792969 215.859375 C 258.925781 215.859375 259.035156 215.96875 259.035156 216.101562 L 259.035156 216.871094 C 259.035156 217.007812 258.925781 217.113281 258.792969 217.113281 Z M 258.792969 217.113281 "/>
<path style=" stroke:none;fill-rule:nonzero;fill:rgb(24.705882%,23.921569%,33.72549%);fill-opacity:1;" d="M 254.609375 217.113281 L 253.003906 217.113281 C 252.871094 217.113281 252.761719 217.007812 252.761719 216.871094 L 252.761719 216.101562 C 252.761719 215.96875 252.871094 215.859375 253.003906 215.859375 L 254.609375 215.859375 C 254.742188 215.859375 254.851562 215.96875 254.851562 216.101562 L 254.851562 216.871094 C 254.851562 217.007812 254.742188 217.113281 254.609375 217.113281 Z M 254.609375 217.113281 "/>
<path style=" stroke:none;fill-rule:nonzero;fill:rgb(24.705882%,23.921569%,33.72549%);fill-opacity:1;" d="M 250.425781 217.113281 L 248.820312 217.113281 C 248.6875 217.113281 248.578125 217.007812 248.578125 216.871094 L 248.578125 216.101562 C 248.578125 215.96875 248.6875 215.859375 248.820312 215.859375 L 250.425781 215.859375 C 250.5625 215.859375 250.667969 215.96875 250.667969 216.101562 L 250.667969 216.871094 C 250.667969 217.007812 250.5625 217.113281 250.425781 217.113281 Z M 250.425781 217.113281 "/>
<path style=" stroke:none;fill-rule:nonzero;fill:rgb(24.705882%,23.921569%,33.72549%);fill-opacity:1;" d="M 313.222656 219.210938 L 311.617188 219.210938 C 311.484375 219.210938 311.375 219.101562 311.375 218.964844 L 311.375 218.195312 C 311.375 218.0625 311.484375 217.953125 311.617188 217.953125 L 313.222656 217.953125 C 313.359375 217.953125 313.46875 218.0625 313.46875 218.195312 L 313.46875 218.964844 C 313.46875 219.101562 313.359375 219.210938 313.222656 219.210938 Z M 313.222656 219.210938 "/>
<path style=" stroke:none;fill-rule:nonzero;fill:rgb(24.705882%,23.921569%,33.72549%);fill-opacity:1;" d="M 309.039062 219.210938 L 307.4375 219.210938 C 307.300781 219.210938 307.191406 219.101562 307.191406 218.964844 L 307.191406 218.195312 C 307.191406 218.0625 307.300781 217.953125 307.4375 217.953125 L 309.039062 217.953125 C 309.175781 217.953125 309.285156 218.0625 309.285156 218.195312 L 309.285156 218.964844 C 309.285156 219.101562 309.175781 219.210938 309.039062 219.210938 Z M 309.039062 219.210938 "/>
<path style=" stroke:none;fill-rule:nonzero;fill:rgb(24.705882%,23.921569%,33.72549%);fill-opacity:1;" d="M 304.855469 219.210938 L 303.253906 219.210938 C 303.117188 219.210938 303.007812 219.101562 303.007812 218.964844 L 303.007812 218.195312 C 303.007812 218.0625 303.117188 217.953125 303.253906 217.953125 L 304.855469 217.953125 C 304.992188 217.953125 305.101562 218.0625 305.101562 218.195312 L 305.101562 218.964844 C 305.101562 219.101562 304.992188 219.210938 304.855469 219.210938 Z M 304.855469 219.210938 "/>
<path style=" stroke:none;fill-rule:nonzero;fill:rgb(24.705882%,23.921569%,33.72549%);fill-opacity:1;" d="M 300.671875 219.210938 L 299.070312 219.210938 C 298.933594 219.210938 298.824219 219.101562 298.824219 218.964844 L 298.824219 218.195312 C 298.824219 218.0625 298.933594 217.953125 299.070312 217.953125 L 300.671875 217.953125 C 300.808594 217.953125 300.917969 218.0625 300.917969 218.195312 L 300.917969 218.964844 C 300.917969 219.101562 300.808594 219.210938 300.671875 219.210938 Z M 300.671875 219.210938 "/>
<path style=" stroke:none;fill-rule:nonzero;fill:rgb(24.705882%,23.921569%,33.72549%);fill-opacity:1;" d="M 296.492188 219.210938 L 294.886719 219.210938 C 294.75 219.210938 294.640625 219.101562 294.640625 218.964844 L 294.640625 218.195312 C 294.640625 218.0625 294.75 217.953125 294.886719 217.953125 L 296.492188 217.953125 C 296.625 217.953125 296.734375 218.0625 296.734375 218.195312 L 296.734375 218.964844 C 296.734375 219.101562 296.625 219.210938 296.492188 219.210938 Z M 296.492188 219.210938 "/>
<path style=" stroke:none;fill-rule:nonzero;fill:rgb(24.705882%,23.921569%,33.72549%);fill-opacity:1;" d="M 292.308594 219.210938 L 290.703125 219.210938 C 290.570312 219.210938 290.460938 219.101562 290.460938 218.964844 L 290.460938 218.195312 C 290.460938 218.0625 290.570312 217.953125 290.703125 217.953125 L 292.308594 217.953125 C 292.441406 217.953125 292.550781 218.0625 292.550781 218.195312 L 292.550781 218.964844 C 292.550781 219.101562 292.441406 219.210938 292.308594 219.210938 Z M 292.308594 219.210938 "/>
<path style=" stroke:none;fill-rule:nonzero;fill:rgb(24.705882%,23.921569%,33.72549%);fill-opacity:1;" d="M 288.125 219.210938 L 286.519531 219.210938 C 286.386719 219.210938 286.277344 219.101562 286.277344 218.964844 L 286.277344 218.195312 C 286.277344 218.0625 286.386719 217.953125 286.519531 217.953125 L 288.125 217.953125 C 288.257812 217.953125 288.367188 218.0625 288.367188 218.195312 L 288.367188 218.964844 C 288.367188 219.101562 288.257812 219.210938 288.125 219.210938 Z M 288.125 219.210938 "/>
<path style=" stroke:none;fill-rule:nonzero;fill:rgb(24.705882%,23.921569%,33.72549%);fill-opacity:1;" d="M 283.941406 219.210938 L 282.335938 219.210938 C 282.203125 219.210938 282.09375 219.101562 282.09375 218.964844 L 282.09375 218.195312 C 282.09375 218.0625 282.203125 217.953125 282.335938 217.953125 L 283.941406 217.953125 C 284.074219 217.953125 284.183594 218.0625 284.183594 218.195312 L 284.183594 218.964844 C 284.183594 219.101562 284.074219 219.210938 283.941406 219.210938 Z M 283.941406 219.210938 "/>
<path style=" stroke:none;fill-rule:nonzero;fill:rgb(24.705882%,23.921569%,33.72549%);fill-opacity:1;" d="M 279.757812 219.210938 L 278.152344 219.210938 C 278.019531 219.210938 277.910156 219.101562 277.910156 218.964844 L 277.910156 218.195312 C 277.910156 218.0625 278.019531 217.953125 278.152344 217.953125 L 279.757812 217.953125 C 279.890625 217.953125 280 218.0625 280 218.195312 L 280 218.964844 C 280 219.101562 279.890625 219.210938 279.757812 219.210938 Z M 279.757812 219.210938 "/>
<path style=" stroke:none;fill-rule:nonzero;fill:rgb(24.705882%,23.921569%,33.72549%);fill-opacity:1;" d="M 275.574219 219.210938 L 273.96875 219.210938 C 273.835938 219.210938 273.726562 219.101562 273.726562 218.964844 L 273.726562 218.195312 C 273.726562 218.0625 273.835938 217.953125 273.96875 217.953125 L 275.574219 217.953125 C 275.710938 217.953125 275.816406 218.0625 275.816406 218.195312 L 275.816406 218.964844 C 275.816406 219.101562 275.710938 219.210938 275.574219 219.210938 Z M 275.574219 219.210938 "/>
<path style=" stroke:none;fill-rule:nonzero;fill:rgb(24.705882%,23.921569%,33.72549%);fill-opacity:1;" d="M 271.390625 219.210938 L 269.789062 219.210938 C 269.652344 219.210938 269.542969 219.101562 269.542969 218.964844 L 269.542969 218.195312 C 269.542969 218.0625 269.652344 217.953125 269.789062 217.953125 L 271.390625 217.953125 C 271.527344 217.953125 271.636719 218.0625 271.636719 218.195312 L 271.636719 218.964844 C 271.636719 219.101562 271.527344 219.210938 271.390625 219.210938 Z M 271.390625 219.210938 "/>
<path style=" stroke:none;fill-rule:nonzero;fill:rgb(24.705882%,23.921569%,33.72549%);fill-opacity:1;" d="M 267.207031 219.210938 L 265.605469 219.210938 C 265.46875 219.210938 265.359375 219.101562 265.359375 218.964844 L 265.359375 218.195312 C 265.359375 218.0625 265.46875 217.953125 265.605469 217.953125 L 267.207031 217.953125 C 267.34375 217.953125 267.453125 218.0625 267.453125 218.195312 L 267.453125 218.964844 C 267.453125 219.101562 267.34375 219.210938 267.207031 219.210938 Z M 267.207031 219.210938 "/>
<path style=" stroke:none;fill-rule:nonzero;fill:rgb(24.705882%,23.921569%,33.72549%);fill-opacity:1;" d="M 263.023438 219.210938 L 261.421875 219.210938 C 261.285156 219.210938 261.175781 219.101562 261.175781 218.964844 L 261.175781 218.195312 C 261.175781 218.0625 261.285156 217.953125 261.421875 217.953125 L 263.023438 217.953125 C 263.160156 217.953125 263.269531 218.0625 263.269531 218.195312 L 263.269531 218.964844 C 263.269531 219.101562 263.160156 219.210938 263.023438 219.210938 Z M 263.023438 219.210938 "/>
<path style=" stroke:none;fill-rule:nonzero;fill:rgb(24.705882%,23.921569%,33.72549%);fill-opacity:1;" d="M 258.84375 219.210938 L 257.238281 219.210938 C 257.101562 219.210938 256.992188 219.101562 256.992188 218.964844 L 256.992188 218.195312 C 256.992188 218.0625 257.101562 217.953125 257.238281 217.953125 L 258.84375 217.953125 C 258.976562 217.953125 259.085938 218.0625 259.085938 218.195312 L 259.085938 218.964844 C 259.085938 219.101562 258.976562 219.210938 258.84375 219.210938 Z M 258.84375 219.210938 "/>
<path style=" stroke:none;fill-rule:nonzero;fill:rgb(24.705882%,23.921569%,33.72549%);fill-opacity:1;" d="M 254.660156 219.210938 L 253.054688 219.210938 C 252.921875 219.210938 252.8125 219.101562 252.8125 218.964844 L 252.8125 218.195312 C 252.8125 218.0625 252.921875 217.953125 253.054688 217.953125 L 254.660156 217.953125 C 254.792969 217.953125 254.902344 218.0625 254.902344 218.195312 L 254.902344 218.964844 C 254.902344 219.101562 254.792969 219.210938 254.660156 219.210938 Z M 254.660156 219.210938 "/>
<path style=" stroke:none;fill-rule:nonzero;fill:rgb(24.705882%,23.921569%,33.72549%);fill-opacity:1;" d="M 250.476562 219.210938 L 248.871094 219.210938 C 248.738281 219.210938 248.628906 219.101562 248.628906 218.964844 L 248.628906 218.195312 C 248.628906 218.0625 248.738281 217.953125 248.871094 217.953125 L 250.476562 217.953125 C 250.609375 217.953125 250.71875 218.0625 250.71875 218.195312 L 250.71875 218.964844 C 250.71875 219.101562 250.609375 219.210938 250.476562 219.210938 Z M 250.476562 219.210938 "/>
<path style=" stroke:none;fill-rule:nonzero;fill:rgb(24.705882%,23.921569%,33.72549%);fill-opacity:1;" d="M 293.144531 221.722656 L 276.898438 221.722656 C 276.765625 221.722656 276.65625 221.613281 276.65625 221.476562 L 276.65625 220.710938 C 276.65625 220.574219 276.765625 220.464844 276.898438 220.464844 L 293.144531 220.464844 C 293.277344 220.464844 293.386719 220.574219 293.386719 220.710938 L 293.386719 221.476562 C 293.386719 221.613281 293.277344 221.722656 293.144531 221.722656 Z M 293.144531 221.722656 "/>
<path style=" stroke:none;fill-rule:nonzero;fill:rgb(100%,100%,100%);fill-opacity:1;" d="M 258.265625 179.367188 L 259.6875 179.367188 C 260.117188 179.367188 260.46875 179.71875 260.46875 180.148438 C 260.46875 180.582031 260.117188 180.929688 259.6875 180.929688 L 258.265625 180.929688 C 257.835938 180.929688 257.488281 180.582031 257.488281 180.148438 C 257.488281 179.71875 257.835938 179.367188 258.265625 179.367188 Z M 258.265625 179.367188 "/>
<path style=" stroke:none;fill-rule:nonzero;fill:rgb(100%,100%,100%);fill-opacity:1;" d="M 274.507812 179.367188 L 275.929688 179.367188 C 276.359375 179.367188 276.707031 179.71875 276.707031 180.148438 C 276.707031 180.582031 276.359375 180.929688 275.929688 180.929688 L 274.507812 180.929688 C 274.078125 180.929688 273.730469 180.582031 273.730469 180.148438 C 273.730469 179.71875 274.078125 179.367188 274.507812 179.367188 Z M 274.507812 179.367188 "/>
<path style=" stroke:none;fill-rule:nonzero;fill:rgb(100%,100%,100%);fill-opacity:1;" d="M 279.109375 179.367188 L 280.53125 179.367188 C 280.960938 179.367188 281.308594 179.71875 281.308594 180.148438 C 281.308594 180.582031 280.960938 180.929688 280.53125 180.929688 L 279.109375 180.929688 C 278.679688 180.929688 278.332031 180.582031 278.332031 180.148438 C 278.332031 179.71875 278.679688 179.367188 279.109375 179.367188 Z M 279.109375 179.367188 "/>
<path style=" stroke:none;fill-rule:nonzero;fill:rgb(100%,100%,100%);fill-opacity:1;" d="M 262.683594 179.238281 L 271.511719 179.238281 C 271.941406 179.238281 272.289062 179.585938 272.289062 180.019531 C 272.289062 180.449219 271.941406 180.800781 271.511719 180.800781 L 262.683594 180.800781 C 262.253906 180.800781 261.90625 180.449219 261.90625 180.019531 C 261.90625 179.585938 262.253906 179.238281 262.683594 179.238281 Z M 262.683594 179.238281 "/>
<path style=" stroke:none;fill-rule:nonzero;fill:rgb(100%,100%,100%);fill-opacity:1;" d="M 284.339844 179.238281 L 293.164062 179.238281 C 293.597656 179.238281 293.945312 179.585938 293.945312 180.019531 C 293.945312 180.449219 293.597656 180.800781 293.164062 180.800781 L 284.339844 180.800781 C 283.910156 180.800781 283.558594 180.449219 283.558594 180.019531 C 283.558594 179.585938 283.910156 179.238281 284.339844 179.238281 Z M 284.339844 179.238281 "/>
<path style=" stroke:none;fill-rule:nonzero;fill:rgb(100%,100%,100%);fill-opacity:1;" d="M 262.597656 182.890625 L 264.019531 182.890625 C 264.449219 182.890625 264.796875 183.242188 264.796875 183.671875 C 264.796875 184.101562 264.449219 184.453125 264.019531 184.453125 L 262.597656 184.453125 C 262.167969 184.453125 261.820312 184.101562 261.820312 183.671875 C 261.820312 183.242188 262.167969 182.890625 262.597656 182.890625 Z M 262.597656 182.890625 "/>
<path style=" stroke:none;fill-rule:nonzero;fill:rgb(100%,100%,100%);fill-opacity:1;" d="M 278.839844 182.890625 L 280.257812 182.890625 C 280.691406 182.890625 281.039062 183.242188 281.039062 183.671875 C 281.039062 184.101562 280.691406 184.453125 280.257812 184.453125 L 278.839844 184.453125 C 278.410156 184.453125 278.058594 184.101562 278.058594 183.671875 C 278.058594 183.242188 278.410156 182.890625 278.839844 182.890625 Z M 278.839844 182.890625 "/>
<path style=" stroke:none;fill-rule:nonzero;fill:rgb(100%,100%,100%);fill-opacity:1;" d="M 283.441406 182.890625 L 284.859375 182.890625 C 285.292969 182.890625 285.640625 183.242188 285.640625 183.671875 C 285.640625 184.101562 285.292969 184.453125 284.859375 184.453125 L 283.441406 184.453125 C 283.011719 184.453125 282.660156 184.101562 282.660156 183.671875 C 282.660156 183.242188 283.011719 182.890625 283.441406 182.890625 Z M 283.441406 182.890625 "/>
<path style=" stroke:none;fill-rule:nonzero;fill:rgb(100%,100%,100%);fill-opacity:1;" d="M 267.015625 182.761719 L 275.839844 182.761719 C 276.273438 182.761719 276.621094 183.109375 276.621094 183.542969 C 276.621094 183.972656 276.273438 184.324219 275.839844 184.324219 L 267.015625 184.324219 C 266.585938 184.324219 266.238281 183.972656 266.238281 183.542969 C 266.238281 183.109375 266.585938 182.761719 267.015625 182.761719 Z M 267.015625 182.761719 "/>
<path style=" stroke:none;fill-rule:nonzero;fill:rgb(100%,100%,100%);fill-opacity:1;" d="M 288.671875 182.761719 L 297.496094 182.761719 C 297.925781 182.761719 298.277344 183.109375 298.277344 183.542969 C 298.277344 183.972656 297.925781 184.324219 297.496094 184.324219 L 288.671875 184.324219 C 288.238281 184.324219 287.890625 183.972656 287.890625 183.542969 C 287.890625 183.109375 288.238281 182.761719 288.671875 182.761719 Z M 288.671875 182.761719 "/>
<path style=" stroke:none;fill-rule:nonzero;fill:rgb(100%,100%,100%);fill-opacity:1;" d="M 266.929688 186.414062 L 268.347656 186.414062 C 268.78125 186.414062 269.128906 186.765625 269.128906 187.195312 C 269.128906 187.625 268.78125 187.976562 268.347656 187.976562 L 266.929688 187.976562 C 266.5 187.976562 266.148438 187.625 266.148438 187.195312 C 266.148438 186.765625 266.5 186.414062 266.929688 186.414062 Z M 266.929688 186.414062 "/>
<path style=" stroke:none;fill-rule:nonzero;fill:rgb(100%,100%,100%);fill-opacity:1;" d="M 283.171875 186.414062 L 284.589844 186.414062 C 285.019531 186.414062 285.371094 186.765625 285.371094 187.195312 C 285.371094 187.625 285.019531 187.976562 284.589844 187.976562 L 283.171875 187.976562 C 282.738281 187.976562 282.390625 187.625 282.390625 187.195312 C 282.390625 186.765625 282.738281 186.414062 283.171875 186.414062 Z M 283.171875 186.414062 "/>
<path style=" stroke:none;fill-rule:nonzero;fill:rgb(100%,100%,100%);fill-opacity:1;" d="M 287.773438 186.414062 L 289.191406 186.414062 C 289.621094 186.414062 289.972656 186.765625 289.972656 187.195312 C 289.972656 187.625 289.621094 187.976562 289.191406 187.976562 L 287.773438 187.976562 C 287.339844 187.976562 286.992188 187.625 286.992188 187.195312 C 286.992188 186.765625 287.339844 186.414062 287.773438 186.414062 Z M 287.773438 186.414062 "/>
<path style=" stroke:none;fill-rule:nonzero;fill:rgb(100%,100%,100%);fill-opacity:1;" d="M 271.347656 186.285156 L 280.171875 186.285156 C 280.601562 186.285156 280.953125 186.632812 280.953125 187.066406 C 280.953125 187.496094 280.601562 187.847656 280.171875 187.847656 L 271.347656 187.847656 C 270.917969 187.847656 270.566406 187.496094 270.566406 187.066406 C 270.566406 186.632812 270.917969 186.285156 271.347656 186.285156 Z M 271.347656 186.285156 "/>
<path style=" stroke:none;fill-rule:nonzero;fill:rgb(100%,100%,100%);fill-opacity:1;" d="M 293 186.285156 L 301.828125 186.285156 C 302.257812 186.285156 302.605469 186.632812 302.605469 187.066406 C 302.605469 187.496094 302.257812 187.847656 301.828125 187.847656 L 293 187.847656 C 292.570312 187.847656 292.222656 187.496094 292.222656 187.066406 C 292.222656 186.632812 292.570312 186.285156 293 186.285156 Z M 293 186.285156 "/>
<path style=" stroke:none;fill-rule:nonzero;fill:rgb(100%,100%,100%);fill-opacity:1;" d="M 271.261719 189.9375 L 272.679688 189.9375 C 273.109375 189.9375 273.460938 190.289062 273.460938 190.71875 C 273.460938 191.148438 273.109375 191.5 272.679688 191.5 L 271.261719 191.5 C 270.828125 191.5 270.480469 191.148438 270.480469 190.71875 C 270.480469 190.289062 270.828125 189.9375 271.261719 189.9375 Z M 271.261719 189.9375 "/>
<path style=" stroke:none;fill-rule:nonzero;fill:rgb(100%,100%,100%);fill-opacity:1;" d="M 287.5 189.9375 L 288.921875 189.9375 C 289.351562 189.9375 289.699219 190.289062 289.699219 190.71875 C 289.699219 191.148438 289.351562 191.5 288.921875 191.5 L 287.5 191.5 C 287.070312 191.5 286.722656 191.148438 286.722656 190.71875 C 286.722656 190.289062 287.070312 189.9375 287.5 189.9375 Z M 287.5 189.9375 "/>
<path style=" stroke:none;fill-rule:nonzero;fill:rgb(100%,100%,100%);fill-opacity:1;" d="M 292.101562 189.9375 L 293.523438 189.9375 C 293.953125 189.9375 294.300781 190.289062 294.300781 190.71875 C 294.300781 191.148438 293.953125 191.5 293.523438 191.5 L 292.101562 191.5 C 291.671875 191.5 291.324219 191.148438 291.324219 190.71875 C 291.324219 190.289062 291.671875 189.9375 292.101562 189.9375 Z M 292.101562 189.9375 "/>
<path style=" stroke:none;fill-rule:nonzero;fill:rgb(100%,100%,100%);fill-opacity:1;" d="M 275.675781 189.808594 L 284.503906 189.808594 C 284.933594 189.808594 285.28125 190.15625 285.28125 190.589844 C 285.28125 191.019531 284.933594 191.371094 284.503906 191.371094 L 275.675781 191.371094 C 275.246094 191.371094 274.898438 191.019531 274.898438 190.589844 C 274.898438 190.15625 275.246094 189.808594 275.675781 189.808594 Z M 275.675781 189.808594 "/>
<path style=" stroke:none;fill-rule:nonzero;fill:rgb(100%,100%,100%);fill-opacity:1;" d="M 274.507812 203.949219 L 275.929688 203.949219 C 276.359375 203.949219 276.707031 204.296875 276.707031 204.730469 C 276.707031 205.160156 276.359375 205.511719 275.929688 205.511719 L 274.507812 205.511719 C 274.078125 205.511719 273.730469 205.160156 273.730469 204.730469 C 273.730469 204.296875 274.078125 203.949219 274.507812 203.949219 Z M 274.507812 203.949219 "/>
<path style=" stroke:none;fill-rule:nonzero;fill:rgb(100%,100%,100%);fill-opacity:1;" d="M 279.109375 203.949219 L 280.53125 203.949219 C 280.960938 203.949219 281.308594 204.296875 281.308594 204.730469 C 281.308594 205.160156 280.960938 205.511719 280.53125 205.511719 L 279.109375 205.511719 C 278.679688 205.511719 278.332031 205.160156 278.332031 204.730469 C 278.332031 204.296875 278.679688 203.949219 279.109375 203.949219 Z M 279.109375 203.949219 "/>
<path style=" stroke:none;fill-rule:nonzero;fill:rgb(100%,100%,100%);fill-opacity:1;" d="M 284.339844 204.078125 L 293.164062 204.078125 C 293.597656 204.078125 293.945312 204.429688 293.945312 204.859375 C 293.945312 205.289062 293.597656 205.640625 293.164062 205.640625 L 284.339844 205.640625 C 283.910156 205.640625 283.558594 205.289062 283.558594 204.859375 C 283.558594 204.429688 283.910156 204.078125 284.339844 204.078125 Z M 284.339844 204.078125 "/>
<path style=" stroke:none;fill-rule:nonzero;fill:rgb(100%,100%,100%);fill-opacity:1;" d="M 258.265625 203.949219 L 259.6875 203.949219 C 260.117188 203.949219 260.46875 204.296875 260.46875 204.730469 C 260.46875 205.160156 260.117188 205.511719 259.6875 205.511719 L 258.265625 205.511719 C 257.835938 205.511719 257.488281 205.160156 257.488281 204.730469 C 257.488281 204.296875 257.835938 203.949219 258.265625 203.949219 Z M 258.265625 203.949219 "/>
<path style=" stroke:none;fill-rule:nonzero;fill:rgb(100%,100%,100%);fill-opacity:1;" d="M 262.683594 204.078125 L 271.511719 204.078125 C 271.941406 204.078125 272.289062 204.429688 272.289062 204.859375 C 272.289062 205.289062 271.941406 205.640625 271.511719 205.640625 L 262.683594 205.640625 C 262.253906 205.640625 261.90625 205.289062 261.90625 204.859375 C 261.90625 204.429688 262.253906 204.078125 262.683594 204.078125 Z M 262.683594 204.078125 "/>
<path style=" stroke:none;fill-rule:nonzero;fill:rgb(100%,100%,100%);fill-opacity:1;" d="M 262.597656 200.425781 L 264.019531 200.425781 C 264.449219 200.425781 264.796875 200.773438 264.796875 201.207031 C 264.796875 201.636719 264.449219 201.988281 264.019531 201.988281 L 262.597656 201.988281 C 262.167969 201.988281 261.820312 201.636719 261.820312 201.207031 C 261.820312 200.773438 262.167969 200.425781 262.597656 200.425781 Z M 262.597656 200.425781 "/>
<path style=" stroke:none;fill-rule:nonzero;fill:rgb(100%,100%,100%);fill-opacity:1;" d="M 278.839844 200.425781 L 280.257812 200.425781 C 280.691406 200.425781 281.039062 200.773438 281.039062 201.207031 C 281.039062 201.636719 280.691406 201.988281 280.257812 201.988281 L 278.839844 201.988281 C 278.410156 201.988281 278.058594 201.636719 278.058594 201.207031 C 278.058594 200.773438 278.410156 200.425781 278.839844 200.425781 Z M 278.839844 200.425781 "/>
<path style=" stroke:none;fill-rule:nonzero;fill:rgb(100%,100%,100%);fill-opacity:1;" d="M 283.441406 200.425781 L 284.859375 200.425781 C 285.292969 200.425781 285.640625 200.773438 285.640625 201.207031 C 285.640625 201.636719 285.292969 201.988281 284.859375 201.988281 L 283.441406 201.988281 C 283.011719 201.988281 282.660156 201.636719 282.660156 201.207031 C 282.660156 200.773438 283.011719 200.425781 283.441406 200.425781 Z M 283.441406 200.425781 "/>
<path style=" stroke:none;fill-rule:nonzero;fill:rgb(100%,100%,100%);fill-opacity:1;" d="M 267.015625 200.554688 L 275.839844 200.554688 C 276.273438 200.554688 276.621094 200.90625 276.621094 201.335938 C 276.621094 201.765625 276.273438 202.117188 275.839844 202.117188 L 267.015625 202.117188 C 266.585938 202.117188 266.238281 201.765625 266.238281 201.335938 C 266.238281 200.90625 266.585938 200.554688 267.015625 200.554688 Z M 267.015625 200.554688 "/>
<path style=" stroke:none;fill-rule:nonzero;fill:rgb(100%,100%,100%);fill-opacity:1;" d="M 266.929688 196.902344 L 268.347656 196.902344 C 268.78125 196.902344 269.128906 197.25 269.128906 197.683594 C 269.128906 198.113281 268.78125 198.464844 268.347656 198.464844 L 266.929688 198.464844 C 266.5 198.464844 266.148438 198.113281 266.148438 197.683594 C 266.148438 197.25 266.5 196.902344 266.929688 196.902344 Z M 266.929688 196.902344 "/>
<path style=" stroke:none;fill-rule:nonzero;fill:rgb(100%,100%,100%);fill-opacity:1;" d="M 283.171875 196.902344 L 284.589844 196.902344 C 285.019531 196.902344 285.371094 197.25 285.371094 197.683594 C 285.371094 198.113281 285.019531 198.464844 284.589844 198.464844 L 283.171875 198.464844 C 282.738281 198.464844 282.390625 198.113281 282.390625 197.683594 C 282.390625 197.25 282.738281 196.902344 283.171875 196.902344 Z M 283.171875 196.902344 "/>
<path style=" stroke:none;fill-rule:nonzero;fill:rgb(100%,100%,100%);fill-opacity:1;" d="M 287.773438 196.902344 L 289.191406 196.902344 C 289.621094 196.902344 289.972656 197.25 289.972656 197.683594 C 289.972656 198.113281 289.621094 198.464844 289.191406 198.464844 L 287.773438 198.464844 C 287.339844 198.464844 286.992188 198.113281 286.992188 197.683594 C 286.992188 197.25 287.339844 196.902344 287.773438 196.902344 Z M 287.773438 196.902344 "/>
<path style=" stroke:none;fill-rule:nonzero;fill:rgb(100%,100%,100%);fill-opacity:1;" d="M 271.347656 197.03125 L 280.171875 197.03125 C 280.601562 197.03125 280.953125 197.382812 280.953125 197.8125 C 280.953125 198.242188 280.601562 198.59375 280.171875 198.59375 L 271.347656 198.59375 C 270.917969 198.59375 270.566406 198.242188 270.566406 197.8125 C 270.566406 197.382812 270.917969 197.03125 271.347656 197.03125 Z M 271.347656 197.03125 "/>
<path style=" stroke:none;fill-rule:nonzero;fill:rgb(100%,100%,100%);fill-opacity:1;" d="M 271.261719 193.378906 L 272.679688 193.378906 C 273.109375 193.378906 273.460938 193.726562 273.460938 194.160156 C 273.460938 194.589844 273.109375 194.941406 272.679688 194.941406 L 271.261719 194.941406 C 270.828125 194.941406 270.480469 194.589844 270.480469 194.160156 C 270.480469 193.726562 270.828125 193.378906 271.261719 193.378906 Z M 271.261719 193.378906 "/>
<path style=" stroke:none;fill-rule:nonzero;fill:rgb(100%,100%,100%);fill-opacity:1;" d="M 287.5 193.378906 L 288.921875 193.378906 C 289.351562 193.378906 289.699219 193.726562 289.699219 194.160156 C 289.699219 194.589844 289.351562 194.941406 288.921875 194.941406 L 287.5 194.941406 C 287.070312 194.941406 286.722656 194.589844 286.722656 194.160156 C 286.722656 193.726562 287.070312 193.378906 287.5 193.378906 Z M 287.5 193.378906 "/>
<path style=" stroke:none;fill-rule:nonzero;fill:rgb(100%,100%,100%);fill-opacity:1;" d="M 292.101562 193.378906 L 293.523438 193.378906 C 293.953125 193.378906 294.300781 193.726562 294.300781 194.160156 C 294.300781 194.589844 293.953125 194.941406 293.523438 194.941406 L 292.101562 194.941406 C 291.671875 194.941406 291.324219 194.589844 291.324219 194.160156 C 291.324219 193.726562 291.671875 193.378906 292.101562 193.378906 Z M 292.101562 193.378906 "/>
<path style=" stroke:none;fill-rule:nonzero;fill:rgb(100%,100%,100%);fill-opacity:1;" d="M 275.675781 193.507812 L 284.503906 193.507812 C 284.933594 193.507812 285.28125 193.859375 285.28125 194.289062 C 285.28125 194.71875 284.933594 195.070312 284.503906 195.070312 L 275.675781 195.070312 C 275.246094 195.070312 274.898438 194.71875 274.898438 194.289062 C 274.898438 193.859375 275.246094 193.507812 275.675781 193.507812 Z M 275.675781 193.507812 "/>
<path style=" stroke:none;fill-rule:nonzero;fill:rgb(100%,71.372549%,71.372549%);fill-opacity:1;" d="M 252.136719 245.242188 L 245.472656 234.691406 L 266.394531 217.988281 L 275.03125 208.40625 C 277.316406 205.875 280.773438 204.75 284.109375 205.453125 C 287.441406 206.15625 290.152344 208.582031 291.222656 211.820312 C 292.839844 216.726562 290.285156 222.03125 285.441406 223.816406 L 271.785156 228.855469 Z M 252.136719 245.242188 "/>
<path style=" stroke:none;fill-rule:nonzero;fill:rgb(18.431373%,18.039216%,25.490196%);fill-opacity:1;" d="M 95.722656 168.742188 L 95.722656 220.019531 L 131.601562 220.019531 L 131.601562 168.742188 C 131.605469 167.984375 131.113281 167.3125 130.390625 167.089844 C 130.222656 167.035156 130.050781 167.007812 129.875 167.011719 L 97.457031 167.011719 C 96.5 167.007812 95.722656 167.785156 95.722656 168.742188 Z M 109.726562 186.359375 C 109.746094 184.257812 111.453125 182.5625 113.554688 182.5625 C 115.65625 182.5625 117.367188 184.257812 117.386719 186.359375 L 117.386719 192.308594 C 117.375 194.421875 115.664062 196.125 113.554688 196.125 C 111.449219 196.125 109.734375 194.421875 109.726562 192.308594 Z M 109.726562 186.359375 "/>
<path style=" stroke:none;fill-rule:nonzero;fill:rgb(24.705882%,23.921569%,33.72549%);fill-opacity:1;" d="M 95.613281 218.378906 L 95.613281 223.324219 C 95.613281 223.859375 96.042969 224.289062 96.578125 224.296875 L 130.75 224.296875 C 131.28125 224.292969 131.710938 223.859375 131.710938 223.324219 L 131.710938 218.378906 Z M 95.613281 218.378906 "/>
<path style=" stroke:none;fill-rule:nonzero;fill:rgb(24.705882%,23.921569%,33.72549%);fill-opacity:1;" d="M 39.28125 91.480469 L 39.28125 185.109375 C 39.28125 187.59375 41.292969 189.609375 43.773438 189.609375 L 182.347656 189.609375 C 184.828125 189.609375 186.839844 187.59375 186.84375 185.109375 L 186.84375 91.480469 C 186.835938 89 184.828125 86.988281 182.347656 86.984375 L 43.773438 86.984375 C 41.296875 86.988281 39.285156 89 39.28125 91.480469 Z M 39.28125 91.480469 "/>
<path style=" stroke:none;fill-rule:nonzero;fill:rgb(100%,100%,100%);fill-opacity:1;" d="M 42.53125 92.644531 L 42.53125 183.957031 C 42.53125 185.28125 43.605469 186.359375 44.933594 186.359375 L 181.195312 186.359375 C 182.519531 186.359375 183.59375 185.28125 183.597656 183.957031 L 183.597656 92.644531 C 183.597656 91.316406 182.523438 90.238281 181.195312 90.234375 L 44.933594 90.234375 C 43.605469 90.238281 42.53125 91.316406 42.53125 92.644531 Z M 42.53125 92.644531 "/>
<path style=" stroke:none;fill-rule:nonzero;fill:rgb(18.431373%,18.039216%,25.490196%);fill-opacity:1;" d="M 67.820312 223.960938 C 68.101562 224.3125 68.527344 224.519531 68.976562 224.515625 L 150.042969 224.515625 C 150.492188 224.515625 150.917969 224.3125 151.199219 223.960938 C 151.484375 223.613281 151.59375 223.15625 151.503906 222.714844 L 150.242188 216.730469 C 150.136719 216.234375 149.789062 215.824219 149.316406 215.644531 C 149.144531 215.578125 148.96875 215.546875 148.785156 215.546875 L 70.230469 215.546875 C 70.050781 215.546875 69.871094 215.578125 69.703125 215.644531 C 69.226562 215.824219 68.878906 216.234375 68.773438 216.730469 L 67.515625 222.714844 C 67.421875 223.15625 67.535156 223.613281 67.820312 223.960938 Z M 67.820312 223.960938 "/>
<path style=" stroke:none;fill-rule:nonzero;fill:rgb(24.705882%,23.921569%,33.72549%);fill-opacity:1;" d="M 176.773438 102.8125 L 49.273438 102.8125 C 48.996094 102.808594 48.777344 102.582031 48.777344 102.304688 C 48.777344 102.03125 48.996094 101.804688 49.273438 101.796875 L 176.773438 101.796875 C 177.046875 101.804688 177.269531 102.03125 177.269531 102.304688 C 177.269531 102.582031 177.046875 102.808594 176.773438 102.8125 Z M 176.773438 102.8125 "/>
<path style=" stroke:none;fill-rule:nonzero;fill:rgb(24.705882%,23.921569%,33.72549%);fill-opacity:1;" d="M 60.921875 96.164062 C 60.921875 94.484375 59.59375 93.125 57.953125 93.125 C 56.3125 93.125 54.980469 94.484375 54.980469 96.164062 C 54.980469 97.84375 56.3125 99.207031 57.953125 99.207031 C 59.59375 99.207031 60.921875 97.84375 60.921875 96.164062 Z M 60.921875 96.164062 "/>
<path style=" stroke:none;fill-rule:nonzero;fill:rgb(24.705882%,23.921569%,33.72549%);fill-opacity:1;" d="M 71.1875 96.164062 C 71.1875 94.484375 69.859375 93.125 68.21875 93.125 C 66.574219 93.125 65.246094 94.484375 65.246094 96.164062 C 65.246094 97.84375 66.574219 99.207031 68.21875 99.207031 C 69.859375 99.207031 71.1875 97.84375 71.1875 96.164062 Z M 71.1875 96.164062 "/>
<path style=" stroke:none;fill-rule:nonzero;fill:rgb(24.705882%,23.921569%,33.72549%);fill-opacity:1;" d="M 81.453125 96.164062 C 81.453125 94.484375 80.121094 93.125 78.480469 93.125 C 76.839844 93.125 75.511719 94.484375 75.511719 96.164062 C 75.511719 97.84375 76.839844 99.207031 78.480469 99.207031 C 80.121094 99.207031 81.453125 97.84375 81.453125 96.164062 Z M 81.453125 96.164062 "/>
<path style=" stroke:none;fill-rule:nonzero;fill:rgb(24.705882%,23.921569%,33.72549%);fill-opacity:1;" d="M 170.589844 93.875 L 163.300781 93.875 C 163 93.882812 162.761719 94.128906 162.761719 94.429688 C 162.761719 94.726562 163 94.972656 163.300781 94.980469 L 170.589844 94.980469 C 170.894531 94.976562 171.136719 94.730469 171.136719 94.429688 C 171.136719 94.125 170.894531 93.878906 170.589844 93.875 Z M 170.589844 93.875 "/>
<path style=" stroke:none;fill-rule:nonzero;fill:rgb(24.705882%,23.921569%,33.72549%);fill-opacity:1;" d="M 170.589844 95.949219 L 163.300781 95.949219 C 163 95.957031 162.761719 96.203125 162.761719 96.503906 C 162.761719 96.804688 163 97.046875 163.300781 97.054688 L 170.589844 97.054688 C 170.894531 97.050781 171.136719 96.804688 171.136719 96.503906 C 171.136719 96.199219 170.894531 95.953125 170.589844 95.949219 Z M 170.589844 95.949219 "/>
<path style=" stroke:none;fill-rule:nonzero;fill:rgb(24.705882%,23.921569%,33.72549%);fill-opacity:1;" d="M 170.589844 98.027344 L 163.300781 98.027344 C 163 98.03125 162.761719 98.277344 162.761719 98.578125 C 162.761719 98.878906 163 99.125 163.300781 99.128906 L 170.589844 99.128906 C 170.894531 99.125 171.136719 98.878906 171.136719 98.578125 C 171.136719 98.277344 170.894531 98.03125 170.589844 98.027344 Z M 170.589844 98.027344 "/>
<path style=" stroke:none;fill-rule:nonzero;fill:rgb(18.431373%,18.039216%,25.490196%);fill-opacity:1;" d="M 346.355469 220.550781 C 346.808594 221.867188 348.054688 222.742188 349.445312 222.714844 L 362.675781 222.375 C 364.074219 222.347656 365.289062 221.398438 365.660156 220.046875 L 367.53125 200.003906 C 368.195312 200.304688 368.917969 200.453125 369.648438 200.4375 C 372.3125 200.371094 374.417969 198.15625 374.351562 195.488281 C 374.285156 192.820312 372.070312 190.714844 369.40625 190.78125 C 369.117188 190.777344 368.824219 190.808594 368.539062 190.871094 C 367.914062 190.191406 367.027344 189.808594 366.105469 189.820312 L 345.757812 190.34375 C 345.585938 190.351562 345.417969 190.371094 345.253906 190.40625 C 344.351562 190.574219 343.566406 191.128906 343.097656 191.917969 C 342.632812 192.710938 342.53125 193.667969 342.820312 194.539062 Z M 367.917969 198.640625 L 369.25 193.867188 C 369.398438 193.3125 369.402344 192.730469 369.257812 192.179688 C 369.324219 192.179688 369.378906 192.148438 369.445312 192.148438 C 371.347656 192.109375 372.921875 193.617188 372.964844 195.519531 C 373.011719 197.425781 371.507812 199.007812 369.605469 199.054688 C 369.015625 199.074219 368.433594 198.929688 367.917969 198.640625 Z M 367.917969 198.640625 "/>
<path style=" stroke:none;fill-rule:nonzero;fill:rgb(24.705882%,23.921569%,33.72549%);fill-opacity:1;" d="M 345.253906 190.40625 C 345.6875 192.890625 350.5625 194.632812 356.421875 194.332031 C 361.8125 194.082031 366.21875 192.1875 367.027344 189.941406 C 366.726562 189.851562 366.417969 189.8125 366.105469 189.820312 L 345.757812 190.34375 C 345.585938 190.351562 345.417969 190.371094 345.253906 190.40625 Z M 345.253906 190.40625 "/>
<path style=" stroke:none;fill-rule:nonzero;fill:rgb(69.411765%,69.411765%,69.411765%);fill-opacity:1;" d="M 357.496094 209.535156 C 357.523438 209.53125 357.550781 209.519531 357.574219 209.503906 L 360.445312 207.621094 C 360.515625 207.574219 360.558594 207.496094 360.558594 207.410156 C 360.558594 207.328125 360.515625 207.25 360.445312 207.203125 L 357.460938 205.242188 C 357.386719 205.195312 357.289062 205.1875 357.210938 205.230469 C 357.128906 205.269531 357.078125 205.347656 357.074219 205.4375 C 357.066406 205.527344 357.109375 205.613281 357.1875 205.660156 L 359.851562 207.410156 L 357.300781 209.085938 C 357.199219 209.152344 357.160156 209.28125 357.207031 209.394531 C 357.257812 209.507812 357.378906 209.566406 357.496094 209.535156 Z M 357.496094 209.535156 "/>
<path style=" stroke:none;fill-rule:nonzero;fill:rgb(69.411765%,69.411765%,69.411765%);fill-opacity:1;" d="M 352.960938 209.746094 C 353.058594 209.722656 353.132812 209.636719 353.144531 209.539062 C 353.160156 209.4375 353.109375 209.335938 353.023438 209.285156 L 350.375 207.765625 L 352.933594 205.863281 C 353.042969 205.78125 353.066406 205.625 352.984375 205.511719 C 352.902344 205.402344 352.746094 205.378906 352.636719 205.460938 L 349.769531 207.59375 C 349.703125 207.644531 349.664062 207.722656 349.671875 207.808594 C 349.675781 207.894531 349.722656 207.96875 349.796875 208.011719 L 352.773438 209.71875 C 352.832031 209.753906 352.898438 209.761719 352.960938 209.746094 Z M 352.960938 209.746094 "/>
<path style=" stroke:none;fill-rule:nonzero;fill:rgb(69.411765%,69.411765%,69.411765%);fill-opacity:1;" d="M 357.210938 211.1875 C 357.234375 211.179688 357.257812 211.171875 357.28125 211.15625 C 357.335938 211.125 357.378906 211.066406 357.394531 211.003906 C 357.410156 210.9375 357.398438 210.871094 357.363281 210.8125 L 353.292969 204.109375 C 353.21875 203.992188 353.066406 203.953125 352.949219 204.027344 C 352.832031 204.097656 352.792969 204.253906 352.863281 204.371094 L 356.9375 211.074219 C 356.992188 211.167969 357.105469 211.214844 357.210938 211.1875 Z M 357.210938 211.1875 "/>
<path style=" stroke:none;fill-rule:nonzero;fill:rgb(69.411765%,69.411765%,69.411765%);fill-opacity:1;" d="M 106.1875 130.414062 L 128.257812 130.414062 C 129.15625 130.414062 129.886719 131.144531 129.886719 132.046875 L 129.886719 134.203125 C 129.886719 135.105469 129.15625 135.835938 128.257812 135.835938 L 106.1875 135.835938 C 105.289062 135.835938 104.558594 135.105469 104.558594 134.203125 L 104.558594 132.046875 C 104.558594 131.144531 105.289062 130.414062 106.1875 130.414062 Z M 106.1875 130.414062 "/>
<path style=" stroke:none;fill-rule:nonzero;fill:rgb(90.196078%,90.196078%,90.196078%);fill-opacity:1;" d="M 93.328125 141.257812 L 141.121094 141.257812 C 142.019531 141.257812 142.75 141.988281 142.75 142.890625 L 142.75 145.050781 C 142.75 145.953125 142.019531 146.683594 141.121094 146.683594 L 93.328125 146.683594 C 92.425781 146.683594 91.695312 145.953125 91.695312 145.050781 L 91.695312 142.890625 C 91.695312 141.988281 92.425781 141.257812 93.328125 141.257812 Z M 93.328125 141.257812 "/>
<path style=" stroke:none;fill-rule:nonzero;fill:rgb(90.196078%,90.196078%,90.196078%);fill-opacity:1;" d="M 93.328125 152.105469 L 141.121094 152.105469 C 142.019531 152.105469 142.75 152.835938 142.75 153.738281 L 142.75 155.894531 C 142.75 156.796875 142.019531 157.527344 141.121094 157.527344 L 93.328125 157.527344 C 92.425781 157.527344 91.695312 156.796875 91.695312 155.894531 L 91.695312 153.738281 C 91.695312 152.835938 92.425781 152.105469 93.328125 152.105469 Z M 93.328125 152.105469 "/>
<path style=" stroke:none;fill-rule:nonzero;fill:rgb(24.705882%,23.921569%,33.72549%);fill-opacity:1;" d="M 145.171875 188.421875 L 145.277344 188.765625 L 145.285156 188.777344 L 148.542969 198.695312 L 152.292969 210.125 L 159.34375 231.605469 L 159.414062 234.945312 L 159.414062 234.953125 L 159.9375 261.796875 L 158.484375 265.4375 L 160.117188 271.402344 C 160.117188 271.402344 159.367188 262.382812 155.332031 267.5625 C 153.050781 270.507812 150.378906 273.519531 148.183594 276.339844 C 151.378906 277.636719 154.628906 278.808594 157.925781 279.855469 C 158.636719 280.082031 159.355469 280.300781 160.074219 280.515625 C 160.226562 280.5625 160.378906 280.609375 160.535156 280.652344 C 171.46875 283.890625 182.769531 285.710938 194.167969 286.066406 C 194.757812 286.082031 195.339844 286.09375 195.90625 286.105469 C 196.105469 286.113281 196.296875 286.117188 196.492188 286.117188 C 197.128906 286.125 197.761719 286.128906 198.398438 286.128906 C 199.6875 286.128906 200.96875 286.109375 202.246094 286.070312 C 211.691406 285.804688 221.078125 284.535156 230.253906 282.277344 C 230.191406 278.484375 230.023438 274.054688 229.777344 269.320312 C 229.664062 267 227.105469 264.484375 226.949219 262.054688 C 226.84375 260.226562 229.136719 258.511719 229.019531 256.65625 C 228.246094 245.242188 227.277344 249.625 226.558594 241.542969 C 226.484375 240.75 226.414062 239.992188 226.351562 239.265625 C 225.890625 234.078125 225.574219 230.832031 225.574219 230.832031 L 228.636719 211.488281 L 233.449219 181.121094 L 233.082031 180.511719 L 232.664062 180.304688 L 207.273438 167.722656 L 205.898438 164.1875 C 205.074219 162.101562 203.070312 160.726562 200.832031 160.714844 L 184.105469 160.644531 C 182.347656 160.636719 180.6875 161.480469 179.65625 162.910156 L 175.128906 169.191406 Z M 145.171875 188.421875 "/>
<path style=" stroke:none;fill-rule:nonzero;fill:rgb(24.705882%,23.921569%,33.72549%);fill-opacity:1;" d="M 163.199219 226.828125 L 159.414062 234.945312 L 156.824219 240.488281 L 152.378906 263.808594 L 150.148438 266.175781 L 148.242188 257.796875 L 128.269531 262.238281 C 127.613281 258.59375 128.09375 262.363281 127.6875 258.363281 C 127.800781 258.25 127.921875 258.136719 128.042969 258.019531 C 128.359375 257.722656 128.628906 257.445312 128.621094 257.175781 C 128.394531 243.386719 129.078125 219.914062 134.785156 205.695312 C 135.679688 203.371094 136.859375 201.171875 138.296875 199.140625 C 138.410156 198.988281 138.515625 198.832031 138.625 198.679688 C 141.257812 194.988281 142.921875 191.355469 145.277344 188.769531 L 145.277344 188.765625 C 145.292969 188.753906 145.308594 188.738281 145.320312 188.726562 C 145.328125 188.722656 145.335938 188.714844 145.34375 188.707031 L 161.542969 180.105469 L 162.238281 199.660156 L 162.734375 213.714844 Z M 163.199219 226.828125 "/>
<path style=" stroke:none;fill-rule:nonzero;fill:rgb(24.705882%,23.921569%,33.72549%);fill-opacity:1;" d="M 221.617188 229.132812 L 226.351562 239.269531 L 228.003906 242.800781 L 232.449219 266.121094 L 234.671875 268.480469 L 236.582031 260.105469 L 237.480469 259.921875 L 253.691406 256.558594 L 258.414062 271.582031 C 260.609375 267.917969 259.929688 263.21875 256.785156 260.328125 C 256.464844 260.035156 256.195312 259.753906 256.203125 259.484375 C 256.472656 243.261719 255.480469 213.640625 246.53125 201.449219 C 243.6875 197.582031 241.984375 193.726562 239.5 191.035156 C 239.496094 191.027344 239.496094 191.019531 239.488281 191.019531 L 233.449219 181.121094 L 233.078125 180.515625 L 232.664062 180.304688 Z M 221.617188 229.132812 "/>
<path style=" stroke:none;fill-rule:nonzero;fill:rgb(100%,71.372549%,71.372549%);fill-opacity:1;" d="M 215.203125 133.601562 C 215.203125 145.90625 205.242188 155.878906 192.953125 155.878906 C 180.664062 155.878906 170.703125 145.90625 170.703125 133.601562 C 170.703125 121.296875 180.664062 111.320312 192.953125 111.320312 C 205.242188 111.320312 215.203125 121.296875 215.203125 133.601562 Z M 215.203125 133.601562 "/>
<path style=" stroke:none;fill-rule:nonzero;fill:rgb(18.431373%,18.039216%,25.490196%);fill-opacity:1;" d="M 223.027344 118.039062 C 222.679688 117.664062 222.195312 117.449219 221.683594 117.445312 L 222.019531 116.511719 C 222.242188 115.917969 222.125 115.246094 221.714844 114.761719 C 221.304688 114.273438 220.664062 114.046875 220.042969 114.164062 L 218.824219 114.398438 L 218.9375 113.582031 C 219.027344 112.964844 218.785156 112.347656 218.300781 111.953125 C 217.816406 111.5625 217.160156 111.457031 216.574219 111.671875 C 216.046875 111.882812 215.453125 111.839844 214.957031 111.558594 C 214.460938 111.285156 214.109375 110.808594 214 110.253906 L 213.574219 108.203125 L 213.53125 108.09375 C 211.460938 104.644531 207.488281 102.132812 202.625 101.214844 C 198.292969 100.386719 193.855469 100.808594 189.574219 101.203125 C 187.878906 101.363281 185.960938 101.542969 184.363281 102.523438 C 183.003906 103.363281 181.855469 105.042969 182.089844 106.738281 C 177.871094 105.445312 173.34375 108.027344 171.101562 111.289062 C 168.445312 115.167969 168.011719 120.027344 167.941406 123.828125 C 167.753906 132.820312 169.605469 140.171875 173.433594 145.695312 C 173.714844 146.09375 173.785156 146.929688 174.339844 147.207031 L 174.222656 147.023438 C 174.84375 147.332031 175.472656 147.832031 175.238281 148.367188 C 174.5625 149.910156 179.042969 153.3125 182.199219 154.4375 C 187.957031 156.492188 195.613281 156.320312 200.996094 155.578125 L 201.183594 154.304688 C 203.128906 154.039062 204.496094 153.535156 204.878906 152.742188 C 205.558594 152.164062 206.140625 151.644531 206.644531 151.164062 L 206.648438 151.160156 C 206.65625 151.148438 206.679688 151.132812 206.6875 151.125 C 209.121094 148.789062 209.683594 147.457031 209.9375 145.433594 C 210.183594 143.449219 209.75 141.433594 209.304688 139.617188 C 218.664062 141.070312 205.621094 129.636719 214.339844 127.429688 C 214.4375 127.398438 214.539062 127.371094 214.644531 127.351562 C 214.898438 127.292969 215.152344 127.234375 215.398438 127.164062 C 216.578125 126.84375 217.707031 126.359375 218.753906 125.726562 C 221.191406 124.242188 221.992188 122.273438 223.253906 120.054688 C 223.625 119.40625 223.535156 118.589844 223.027344 118.039062 Z M 223.027344 118.039062 "/>
<path style=" stroke:none;fill-rule:nonzero;fill:rgb(18.431373%,18.039216%,25.490196%);fill-opacity:1;" d="M 271.652344 230.71875 C 271.644531 231.59375 271.636719 232.820312 271.59375 234.332031 C 271.589844 234.542969 271.585938 234.757812 271.582031 234.976562 C 271.515625 237.761719 271.449219 240.097656 271.347656 242.695312 C 271.339844 242.875 271.335938 243.046875 271.324219 243.226562 C 271.1875 246.847656 270.964844 251.0625 270.585938 257.738281 C 269.882812 270.070312 268.65625 259.433594 267.421875 263.757812 C 267.359375 263.972656 267.296875 264.226562 267.234375 264.527344 C 267.050781 265.617188 266.734375 266.679688 266.296875 267.695312 C 265.644531 268.082031 264.96875 268.457031 264.304688 268.832031 C 262.414062 269.886719 260.488281 270.902344 258.550781 271.867188 C 257.464844 272.410156 256.371094 272.9375 255.269531 273.449219 C 255.097656 273.527344 254.925781 273.609375 254.757812 273.683594 C 249.132812 276.289062 243.332031 278.503906 237.402344 280.3125 C 236.246094 280.664062 235.09375 281.003906 233.921875 281.320312 C 232.707031 281.660156 231.488281 281.976562 230.253906 282.277344 C 221.078125 284.535156 211.6875 285.804688 202.242188 286.074219 C 200.96875 286.113281 199.6875 286.128906 198.398438 286.128906 C 197.757812 286.128906 197.128906 286.125 196.492188 286.117188 C 196.296875 286.117188 196.101562 286.113281 195.90625 286.109375 C 195.34375 286.09375 194.757812 286.082031 194.167969 286.070312 C 182.773438 285.710938 171.46875 283.894531 160.535156 280.652344 L 160.074219 280.519531 C 159.351562 280.296875 158.640625 280.082031 157.925781 279.851562 C 154.628906 278.808594 151.382812 277.636719 148.183594 276.34375 C 145.742188 275.359375 143.328125 274.300781 140.941406 273.171875 C 140.921875 273.167969 140.898438 273.15625 140.882812 273.144531 C 140.382812 272.914062 139.878906 272.671875 139.378906 272.429688 C 139.3125 272.394531 139.242188 272.359375 139.175781 272.324219 C 137.3125 271.414062 135.46875 270.460938 133.644531 269.464844 C 132.113281 265.9375 129.957031 265.261719 128.617188 262.164062 C 128.226562 261.242188 127.945312 260.28125 127.777344 259.292969 C 127.777344 259.285156 127.773438 259.273438 127.773438 259.257812 C 127.914062 261.117188 127.179688 255.957031 127.769531 259.238281 C 127.761719 259.179688 127.757812 259.113281 127.753906 259.039062 C 127.738281 258.859375 127.71875 258.636719 127.6875 258.363281 C 125.976562 241.617188 126.085938 222.46875 125.339844 206.6875 C 125.292969 205.667969 125.238281 204.691406 125.1875 203.757812 C 125.171875 203.449219 125.152344 203.144531 125.132812 202.84375 C 125.167969 202.753906 125.207031 202.660156 125.25 202.570312 C 125.261719 202.542969 125.273438 202.515625 125.285156 202.492188 C 125.300781 202.460938 125.316406 202.433594 125.335938 202.402344 C 125.347656 202.386719 125.363281 202.367188 125.371094 202.351562 C 125.378906 202.335938 125.386719 202.320312 125.398438 202.304688 C 125.441406 202.234375 125.492188 202.160156 125.546875 202.089844 C 125.570312 202.058594 125.589844 202.035156 125.617188 202.007812 C 125.632812 201.984375 125.652344 201.960938 125.675781 201.9375 C 125.691406 201.914062 125.710938 201.890625 125.730469 201.875 C 125.75 201.851562 125.769531 201.828125 125.796875 201.804688 C 125.808594 201.789062 125.820312 201.773438 125.835938 201.761719 C 125.875 201.71875 125.917969 201.675781 125.964844 201.636719 C 126.144531 201.472656 126.335938 201.324219 126.535156 201.1875 C 126.605469 201.144531 126.679688 201.097656 126.75 201.046875 C 127.253906 200.746094 127.78125 200.492188 128.332031 200.289062 C 128.523438 200.21875 128.710938 200.152344 128.917969 200.082031 C 128.992188 200.0625 129.0625 200.039062 129.136719 200.011719 C 129.246094 199.976562 129.355469 199.945312 129.472656 199.917969 C 130.039062 199.75 130.65625 199.601562 131.320312 199.46875 C 131.398438 199.453125 131.484375 199.4375 131.570312 199.417969 C 131.6875 199.394531 131.8125 199.375 131.9375 199.351562 C 132.109375 199.324219 132.28125 199.292969 132.457031 199.261719 C 133.941406 199.027344 135.625 198.851562 137.480469 198.738281 C 137.65625 198.726562 137.832031 198.71875 138.003906 198.707031 C 138.210938 198.699219 138.414062 198.6875 138.625 198.679688 C 138.800781 198.667969 138.980469 198.664062 139.160156 198.660156 C 139.332031 198.648438 139.511719 198.644531 139.699219 198.636719 C 140.203125 198.625 140.722656 198.609375 141.25 198.597656 C 142.757812 198.570312 144.347656 198.578125 146.015625 198.613281 C 146.789062 198.632812 147.578125 198.652344 148.386719 198.6875 C 148.441406 198.6875 148.492188 198.695312 148.542969 198.695312 C 149.246094 198.71875 149.957031 198.75 150.683594 198.789062 C 151.195312 198.8125 151.707031 198.839844 152.222656 198.867188 C 152.707031 198.898438 153.195312 198.929688 153.691406 198.964844 C 154.074219 198.984375 154.460938 199.011719 154.847656 199.039062 C 155.179688 199.0625 155.507812 199.089844 155.835938 199.109375 L 156.289062 199.136719 C 156.53125 199.160156 156.777344 199.171875 157.027344 199.199219 C 157.574219 199.242188 158.125 199.289062 158.683594 199.332031 C 159.238281 199.382812 159.804688 199.433594 160.367188 199.484375 C 160.929688 199.535156 161.5 199.589844 162.070312 199.644531 C 162.128906 199.648438 162.183594 199.652344 162.238281 199.660156 C 162.757812 199.714844 163.277344 199.761719 163.800781 199.820312 C 163.921875 199.828125 164.046875 199.839844 164.167969 199.851562 C 164.667969 199.902344 165.175781 199.960938 165.679688 200.015625 C 165.835938 200.03125 165.988281 200.050781 166.144531 200.066406 C 166.539062 200.109375 166.929688 200.148438 167.328125 200.195312 C 167.851562 200.253906 168.386719 200.308594 168.90625 200.378906 C 169.3125 200.421875 169.714844 200.46875 170.121094 200.519531 C 170.753906 200.59375 171.398438 200.671875 172.042969 200.757812 C 172.285156 200.789062 172.53125 200.820312 172.777344 200.851562 C 174.613281 201.082031 176.472656 201.339844 178.359375 201.601562 C 181.21875 202.007812 184.125 202.449219 187.054688 202.921875 C 189.984375 203.398438 192.933594 203.898438 195.898438 204.429688 C 196.644531 204.5625 197.394531 204.699219 198.148438 204.839844 C 198.488281 204.902344 198.828125 204.96875 199.167969 205.035156 C 199.746094 205.136719 200.328125 205.25 200.90625 205.359375 C 201.484375 205.46875 202.0625 205.578125 202.644531 205.695312 C 203.332031 205.828125 204.027344 205.964844 204.714844 206.097656 C 209.253906 207 213.769531 207.957031 218.171875 208.964844 C 218.898438 209.128906 219.621094 209.296875 220.339844 209.464844 C 221.777344 209.796875 223.203125 210.136719 224.617188 210.484375 C 225.003906 210.574219 225.390625 210.667969 225.773438 210.761719 C 226.734375 211.003906 227.691406 211.242188 228.636719 211.488281 L 228.800781 211.535156 C 229.492188 211.703125 230.171875 211.878906 230.851562 212.058594 C 232.457031 212.476562 234.03125 212.902344 235.582031 213.332031 C 236.609375 213.617188 237.628906 213.90625 238.632812 214.199219 C 240.136719 214.632812 241.609375 215.074219 243.042969 215.519531 C 243.394531 215.628906 243.75 215.738281 244.101562 215.84375 C 245.148438 216.167969 246.183594 216.5 247.1875 216.828125 C 247.984375 217.089844 248.765625 217.351562 249.535156 217.617188 C 250.300781 217.882812 251.058594 218.148438 251.796875 218.414062 C 252.269531 218.582031 252.738281 218.761719 253.207031 218.933594 C 253.882812 219.183594 254.546875 219.433594 255.195312 219.683594 C 255.394531 219.757812 255.589844 219.839844 255.785156 219.914062 C 255.910156 219.96875 256.03125 220.011719 256.148438 220.0625 C 256.386719 220.160156 256.625 220.25 256.855469 220.34375 C 257.089844 220.433594 257.320312 220.527344 257.546875 220.628906 C 257.773438 220.71875 258.003906 220.8125 258.222656 220.910156 C 258.449219 221 258.667969 221.09375 258.886719 221.195312 C 259.070312 221.269531 259.25 221.347656 259.425781 221.429688 C 259.78125 221.582031 260.136719 221.738281 260.480469 221.898438 C 260.648438 221.976562 260.820312 222.054688 260.988281 222.132812 L 261.378906 222.3125 C 261.433594 222.34375 261.488281 222.367188 261.542969 222.394531 C 261.667969 222.453125 261.796875 222.519531 261.921875 222.578125 C 262.210938 222.714844 262.496094 222.859375 262.777344 222.992188 C 263.152344 223.183594 263.515625 223.375 263.867188 223.558594 C 264.21875 223.75 264.566406 223.9375 264.894531 224.125 C 264.949219 224.152344 265 224.183594 265.054688 224.214844 C 265.128906 224.253906 265.203125 224.296875 265.277344 224.339844 C 265.535156 224.484375 265.777344 224.632812 266.023438 224.777344 C 266.503906 225.074219 266.957031 225.363281 267.382812 225.652344 C 267.476562 225.71875 267.566406 225.785156 267.660156 225.84375 C 267.976562 226.066406 268.273438 226.289062 268.554688 226.511719 C 268.554688 226.519531 268.554688 226.519531 268.558594 226.519531 C 268.652344 226.589844 268.746094 226.664062 268.835938 226.734375 C 268.910156 226.804688 268.988281 226.863281 269.0625 226.933594 C 269.324219 227.160156 269.5625 227.375 269.78125 227.59375 C 269.855469 227.660156 269.925781 227.734375 269.992188 227.808594 C 270.023438 227.832031 270.046875 227.859375 270.074219 227.886719 C 270.171875 227.988281 270.261719 228.089844 270.347656 228.1875 C 270.359375 228.203125 270.371094 228.21875 270.382812 228.234375 C 270.5 228.375 270.613281 228.511719 270.714844 228.652344 C 270.765625 228.722656 270.820312 228.792969 270.867188 228.863281 C 270.925781 228.949219 270.984375 229.039062 271.035156 229.125 C 271.082031 229.191406 271.121094 229.269531 271.160156 229.339844 C 271.265625 229.519531 271.355469 229.707031 271.429688 229.902344 C 271.488281 230.035156 271.53125 230.171875 271.566406 230.3125 C 271.601562 230.445312 271.632812 230.582031 271.652344 230.71875 Z M 271.652344 230.71875 "/>
<use xlink:href="#surface5" mask="url(#mask0)"/>
</g>
</svg>
